# xmcd CD database file
#
# Track frame offsets:
#	150
#	11377
#	27200
#	45061
#	59533
#	85800
#	96793
#	127504
#	143268
#	164167
#
# Disc length: 2323 seconds
#
# Revision: 0
# Processed by: cddbd v1.5PL3 Copyright (c) Steve Scherf et al.
# Submitted via: CDex 1.51
#
DISCID=6909110a
DTITLE=Stevie Ray Vaughan - The Sky Is Crying
DYEAR=1900
DGENRE=Blues
TTITLE0=Life By The Drop
TTITLE1=So Excited
TTITLE2=Chiltins Con Carne
TTITLE3=Close To You
TTITLE4=May I Have a Talk With You
TTITLE5=Wham
TTITLE6=Little Wing
TTITLE7=Empty Arms
TTITLE8=The Sky Is Crying
TTITLE9=Boot Hill
EXTD=
EXTT0=
EXTT1=
EXTT2=
EXTT3=
EXTT4=
EXTT5=
EXTT6=
EXTT7=
EXTT8=
EXTT9=
PLAYORDER=
